<?xml version="1.0" encoding="utf-8"?>
<!-- Generator: Adobe Illustrator 27.5.0, SVG Export Plug-In . SVG Version: 6.00 Build 0)  -->
<svg version="1.1" id="katman_1" xmlns="http://www.w3.org/2000/svg" xmlns:xlink="http://www.w3.org/1999/xlink" x="0px" y="0px"
	 viewBox="0 0 841.89 595.28" style="enable-background:new 0 0 841.89 595.28;" xml:space="preserve">
<style type="text/css">
	.st0{fill:#010101;stroke:#010101;stroke-width:0.6436;stroke-miterlimit:27.3864;}
	.st1{fill:#FFFFFF;stroke:#FFFFFF;stroke-width:0.6436;stroke-miterlimit:27.3864;}
	.st2{fill:#F37BFC;}
	.st3{fill:#FFFFFF;}
</style>
<g>
	<path class="st0" d="M442.41,39.89c22.55-0.29,44.95-0.15,67.35-0.15v173.49c-69.84,0.15-139.67,0-209.51,0
		c-2.2,0-4.39,0.15-6.59,0.44c2.64,3.07,6.3,4.83,9.66,7.17c2.78-1.76,5.27-4.83,8.78-4.69h64.57c5.12-0.15,8.93,4.1,12.74,6.88
		c5.86-3.22,12.15-7.32,19.18-6.88h126.79v8.05h44.65v109.07c-1.02,10.4-7.03,21.08-16.84,25.62c-4.83,2.49-10.1,4.54-15.37,5.12
		h-43.92c-10.83-0.44-22.69-4.24-28.55-13.91c-7.32-11.27-5.42-25.33-5.12-38.07h-26.65c-0.29,13.03,0.15,26.06-0.15,39.24
		c13.62,1.61,26.94,11.42,28.55,25.77c0.29,30.89,0,61.64,0,92.53c-0.58,13.76-13.03,25.18-26.5,26.64c-16.69,0-33.38-0.15-50.07,0
		c-7.32,0-14.35-3.07-20.21-7.32c-5.71,3.81-12,7.17-19.03,7.17c-17.13,0.15-34.26,0-51.54,0.15c-8.64,0.15-16.54-4.24-22.99-9.81
		c-6.73,6.3-15.81,10.4-25.18,9.81c-17.13-0.58-34.41,1.17-51.39-1.17c-6.15,1.76-12.59,1.02-18.89,1.17
		c-21.52,0-43.04-0.15-64.42,0c-13.91,0.88-27.38-9.22-30.6-22.54c-0.29-30.75,0-61.49-0.15-92.24c-0.44-8.05,3.66-15.67,9.52-20.94
		c6.3-6.3,15.23-8.34,23.72-9.96c-5.86-6.15-8.78-14.64-8.34-22.99v-43.92c-2.49-0.15-4.83-0.15-7.32-0.15v-37.63
		c-20.94,0-42.02-0.15-62.96,0v-136.6c0.15-6.3-0.73-12.74,1.46-18.89C51.5,78.69,62.48,69.61,74.93,68c45.39-0.15,90.77,0,136.16,0
		c8.2-0.29,16.1,3.51,21.96,9.22c7.17-7.47,17.86-9.66,27.82-9.37c14.93,0.29,30.01-0.58,44.95,0.88c3.95,1.32,8.05-0.73,12.01-0.44
		h64.57c10.1-0.29,20.5,1.9,28.4,8.35c8.05-8.49,20.65-9.66,31.63-8.78L442.41,39.89L442.41,39.89z"/>
	<path class="st1" d="M460.42,57.75c10.98-0.88,22.11-0.29,33.23-0.44v137.62c-20.06,0-39.97,0.15-59.88,0
		c-7.47-0.44-16.25-5.42-16.25-13.76V98.9c0.29-8.2,8.64-13.18,16.1-13.62c8.78-0.44,17.72,0,26.64-0.15
		C460.42,76.06,460.27,66.83,460.42,57.75L460.42,57.75z M62.63,99.04c0.15-8.78,9.22-13.76,17.13-13.76
		c19.33-0.29,38.65,0,57.98-0.15c0.29,43.63,0,87.41,0.15,131.18c0.29,7.47-7.91,12.3-14.64,13.03c-20.21,0.15-40.41,0-60.76,0
		c0.15-8.64-0.44-17.28,0.44-25.91c14.2-0.15,28.55,0,42.75-0.15v-8.2c-9.52-0.59-19.03,0.44-28.4-0.59
		c-7.61-0.44-15.37-6.73-14.79-14.93C62.48,152.77,62.34,125.83,62.63,99.04z M151.65,85.28c18.3-0.44,36.75,0,55.05-0.15
		c6.73-0.29,14.35,1.32,18.3,7.32c3.07,3.95,2.05,9.23,2.2,13.91c-0.15,9.23,0.29,18.45-0.15,27.53c-0.73,4.1-5.86,4.54-8.78,6.15
		c3.37,1.61,8.93,2.49,8.93,7.32c0.15,18.74,0,37.33,0,56.08c9.52,0,19.03-0.15,28.4,0c0.29,10.25,0,20.64,0.15,31.04
		c9.08,0.15,18.15-0.15,27.09,0c7.61,0.15,15.66,6,15.66,14.2c0.15,32.65,0,65.44,0,98.09c-10.98,0.15-22.11,0.15-33.23,0
		c0-28.7,0.15-57.39,0-85.94h-9.52v85.94c-11.13,0.15-22.25,0.15-33.23,0c-0.15-39.09-0.15-78.33-0.15-117.42
		c-6.73-0.44-14.35,1.46-20.5-2.34c-3.95-2.2-7.9-6-7.61-10.69v-63.1h-9.81c-0.15,13.76,0,27.53-0.15,41.29
		c-10.83,0.73-21.96,0.73-32.79,0C151.5,158.19,151.21,121.74,151.65,85.28L151.65,85.28z"/>
	<path class="st1" d="M240.37,98.9c-0.59-8.49,9.08-13.62,16.54-13.76c13.91-0.15,27.82,0,41.87,0c7.91,0,16.98,5.27,17.28,14.06
		c0.15,31.92,0,63.83,0,95.75h-58.12c-7.17,0-15.81-3.66-17.42-11.13c-0.29-14.2,0-28.26-0.15-42.46
		c-1.02-7.47,6.88-12.44,13.18-14.2c9.81-0.73,19.47,0,29.28-0.29v-15.37h-10.1c-0.15,2.2-0.15,4.39-0.29,6.59h-32.06
		C240.37,111.63,240.37,105.34,240.37,98.9L240.37,98.9z M329.09,85.28c10.83-0.29,21.81-0.15,32.65-0.15
		c0.15,2.64,0.15,5.27,0.15,7.91c7.47-5.86,17.13-7.76,26.35-7.76c6.73,0.15,14.49,4.1,15.96,10.98
		c0.44,32.94-0.29,65.74,0.58,98.68h-32.94c0.29-27.82,0.44-55.49,0.15-83.31c-3.37-0.15-6.74-0.15-10.1-0.15
		c-0.15,27.82,0.15,55.64,0,83.45h-32.94C328.95,158.34,328.8,121.74,329.09,85.28L329.09,85.28z"/>
	<path class="st0" d="M95.43,111.49h9.81c0.15,19.03,0,38.07,0.15,57.1h-9.96L95.43,111.49L95.43,111.49z M184.29,111.49h9.96v15.37
		h-9.96C184.44,121.74,184.44,116.61,184.29,111.49z M450.47,111.49h9.81c0,19.03,0.15,38.07,0,57.1h-9.81V111.49z M272.87,153.21
		h9.96v15.37h-9.81C273.02,163.46,272.87,158.34,272.87,153.21z"/>
	<path class="st1" d="M151.79,207.82c9.96,0,19.91-0.15,30.01,0v12.74h-30.01V207.82z M133.93,234.91
		c10.98-0.88,21.81-0.29,32.79-0.29c0,2.2,0.15,4.54,0.15,6.73c14.2,0.15,28.55,0.15,42.75,0v26.06h-42.9
		c0.15,16.84,0.15,33.67,0,50.51h9.96V276.2h32.94c0,18.59,0.15,37.19-0.15,55.64c0.15,8.49-7.76,14.93-15.81,14.64
		c-15.23,0-30.45,0.15-45.53,0c-8.2-0.44-14.35-8.2-14.35-16.1c0-20.94,0.15-41.87,0-62.96c-2.93,0-5.86,0-8.78-0.15
		c0.15-8.64,0.15-17.13,0-25.77c2.93,0,5.86-0.15,8.78-0.15C133.78,239.16,133.93,236.96,133.93,234.91L133.93,234.91z
		 M308.74,248.23c-0.44-7.91,7.9-13.32,15.08-13.62c14.64-0.29,29.28-0.15,43.92-0.15c7.9-0.15,16.84,5.27,16.84,13.76v54.32
		c-14.35,0-28.55-0.15-42.9,0c0,5.12,0.15,10.25,0.15,15.37h9.66c0.15-2.2,0.15-4.54,0.29-6.88c10.83-0.15,21.81,0,32.8-0.15
		c-0.29,7.9,0.58,15.96-0.59,23.72c-1.46,8.2-9.96,12.59-17.72,12.3c-14.06-0.15-28.26,0.15-42.46-0.29
		c-7.76-0.29-15.08-6.59-14.93-14.64C308.74,304.01,308.89,276.2,308.74,248.23L308.74,248.23z M394.83,248.23
		c-0.29-7.91,8.05-13.32,15.37-13.76h60.47c-0.15,8.78,0,17.57-0.15,26.35h-42.75v7.91c14.35,0.29,28.55,0,42.9,0.15
		c-0.15,8.78-0.15,17.57,0,26.35c-14.35,0.15-28.55-0.15-42.9,0c-0.15,17.28,0,34.41,0,51.54c-10.98,0.15-21.96,0.15-32.94,0V248.23
		L394.83,248.23z M486.48,234.47c10.98,0.15,22.11,0,33.09,0c0,2.34,0.15,4.69,0.15,6.88c14.2,0.15,28.55,0.15,42.75,0v26.06
		c-14.2,0-28.55-0.15-42.75,0c-0.15,16.84-0.15,33.67,0,50.51h9.81V276.2h32.94v57.25c-0.15,7.03-7.17,11.42-13.32,12.89
		c-14.64,0.44-29.28-0.29-43.92,0.44c-6.44,0.29-13.47-2.34-16.69-8.2c-2.34-4.24-2.2-9.37-2.2-14.06c0-19.03-0.15-38.07,0.15-57.1
		c-2.93,0-5.71,0-8.64-0.15c0.15-8.64,0.15-17.13,0-25.77c2.78-0.15,5.56-0.15,8.34-0.15C486.34,239.01,486.34,236.67,486.48,234.47
		L486.48,234.47z"/>
	<path class="st0" d="M341.68,260.82h9.96v15.37h-9.96V260.82z"/>
	<path class="st1" d="M108.75,378.83c2.05-7.32,10.1-11.42,17.42-11.13c14.06,0.15,28.26-0.15,42.46,0.15
		c7.03,0.29,15.08,4.98,15.37,12.74v97.21c-19.77,0.15-39.53,0.15-59.15,0c-6.44-0.29-13.91-3.51-16.1-9.96
		c-0.29-15.96-0.29-31.92,0-47.88c3.07-5.71,9.08-10.54,15.81-10.54c8.93,0,18.01,0.15,26.94,0c-0.15-5.12,0-10.25-0.15-15.37h-9.66
		c-0.15,2.2-0.15,4.39-0.29,6.59H108.6C108.75,393.32,108.31,386.15,108.75,378.83L108.75,378.83z M197.91,367.7h32.21
		c0,27.82-0.15,55.64,0,83.45c3.37,0,6.73,0,9.96,0.15c-0.15-27.82,0-55.64,0-83.6h32.5c-0.15,33.38,0.15,66.76-0.15,100.14
		c-2.34,6.88-10.54,10.1-17.42,9.66c-14.06-0.15-28.26,0.15-42.46,0c-7.03-0.58-15.67-5.71-14.64-13.76V367.7L197.91,367.7z
		 M291.76,367.7h32.65c0.15,2.34,0.15,4.69,0.29,6.88c14.2,0,28.4,0.15,42.61,0c-0.44,8.78-0.29,17.57-0.29,26.35
		c-14.06,0.15-28.26,0-42.46,0.15c-0.15,16.69,0.15,33.38-0.15,50.07c3.51,0,7.03,0,10.54,0.15c-0.29-13.91,0-27.82-0.15-41.87
		h32.21c-0.15,18.01,0.15,36.02,0,54.02c0.15,8.64-8.93,14.35-16.69,14.06h-42.6c-6.44,0-13.47-3.51-15.96-9.81
		c-0.44-22.11,0-44.36-0.15-66.62c-2.78,0-5.56-0.15-8.35-0.15c0-8.78-0.15-17.57,0-26.21h8.2
		C291.61,372.39,291.61,370.04,291.76,367.7L291.76,367.7z M391.61,368.43c3.22-1.02,6.59-0.73,9.81-0.73
		c13.18,0.15,26.35-0.15,39.53,0c7.32,0.44,15.52,5.86,15.37,13.76v77.74c0,3.66-0.15,7.32-1.9,10.54
		c-3.37,5.42-10.1,8.05-16.4,7.76c-14.06,0-28.26,0.15-42.46,0c-7.17-0.58-15.37-5.86-14.93-13.76c-0.15-27.38,0-54.9-0.15-82.28
		C380.04,375.02,385.9,370.19,391.61,368.43L391.61,368.43z"/>
	<path class="st0" d="M413.42,394.06h9.96c-0.15,19.03,0.15,38.07,0,56.95c-3.37,0.15-6.59,0.15-9.81,0.29
		C413.28,432.27,413.57,413.09,413.42,394.06L413.42,394.06z M141.54,435.78h9.96c-0.15,5.12-0.15,10.1,0.29,15.08
		c-3.51,0.29-7.03,0.29-10.4,0.44C141.54,446.18,141.54,440.91,141.54,435.78L141.54,435.78z"/>
</g>
<path class="st2" d="M612.44,260.06c6.89-0.08,12.45,2.06,16.67,6.43l1.95,2.95c1.63,3.29,2.45,6.7,2.48,10.22
	c0.02,2.71-0.84,5.98-2.59,9.83c-3.19,7.01-6.83,14.11-10.92,21.31c-0.54,0.97-0.27,1.34,0.81,1.14c1.43-0.27,3.12-0.05,5.07,0.64
	c10.41,3.68,15.45,10.01,15.11,18.99c-0.12,3.3-2.14,9.6-6.07,18.9c-7.92,18.73-14.93,38.86-21.04,60.37
	c-2.56,9.03-4.5,17.13-5.82,24.3c-0.39,2.11-0.56,5.38-0.5,9.83c0.06,4.35-0.5,8.65-1.68,12.9c-0.07,0.25,0.05,0.51,0.27,0.6
	c0.07,0.03,0.15,0.03,0.23,0.01l14.17-3.4l39.52-7.64l37.99-4.86c9.64-0.81,19.26-1.28,28.86-1.42c12.66-0.19,25.07,1.4,37.25,4.77
	c9.39,3.14,17.48,8.23,24.29,15.26c6.29,9.93,8.66,20.35,7.09,31.28c-0.79,5.54-2.69,9.74-5.7,12.6c-3.63,3.46-8.36,5.15-14.17,5.07
	c-12.24-1.4-18.28-8.16-18.11-20.29c0.5-2.55,0.11-4.24-1.18-5.05c-3.38-2.13-7.54-3.5-12.47-4.12
	c-11.44-1.42-22.89-1.63-34.37-0.64c-25.26,2.21-50.23,6.16-74.94,11.85c-75.19,17.32-149.91,36.5-224.15,57.55
	c-10.94,3.1-20.28,5.11-28,6.01c-3.97-0.58-7.2-2.15-9.68-4.71c-6.03-6.25-7.25-13.61-3.66-22.07c2.39-5.65,6.55-9.33,12.46-11.02
	c21.52-6.2,43.08-12.31,64.67-18.34c4.35-0.78,8.45-2.07,12.28-3.87l38.55-9.41c1.02-0.26,1.08-0.66,0.18-1.21
	c-7.78-4.74-12.24-11.91-13.37-21.53c-0.61-5.19-3.61-19.48-9.01-42.88c-1.34-8.86-2.28-14.4-2.81-16.59
	c-1.95-8.11-0.83-15.52,3.37-22.25c13.05-9.45,24.01-7.94,32.89,4.52c2.88,10.19,5.07,20.54,6.59,31.04
	c0.19,1.26,0.58,1.33,1.17,0.22l7.76-14.64l23.95-43.9l9.54-17.42l36.58-67.43C597.43,265.81,603.6,261.18,612.44,260.06z
	 M510.26,446.87c-3.63-16.63-7.08-33.82-10.34-51.59c-0.68-3.72-2.45-6.3-5.3-7.73c-3.7-1.86-6.8-1.71-9.29,0.44
	c-1.8,1.57-2.75,4.02-2.84,7.37c-0.1,3.75,0.28,7.64,1.14,11.67c2.57,11.97,6,29.4,10.3,52.3c0.81,4.28,1.81,7.54,3,9.75
	c2.39,4.43,5.71,6.69,9.96,6.78c3.25,0.07,6.5-1.32,9.74-4.18c2.83-2.49,5.24-5.4,7.22-8.73c8.85-14.84,17.4-29.86,25.66-45.05
	c20.85-38.36,41.62-76.76,62.29-115.23c3.65-6.79,6.63-12.68,8.92-17.69c1.42-3.08,1.88-5.75,1.37-8.01
	c-0.93-4.12-3.7-6.08-8.33-5.9c-2.4,0.09-4.49,1.02-6.25,2.79c-1.7,1.7-3.09,3.66-4.15,5.88c-1.12,2.34-1.71,3.56-1.76,3.65
	c-29.44,54.5-59.21,109.08-89.31,163.75C511.35,448.87,510.67,448.77,510.26,446.87z M582.64,455c5.43,3.19,9.57,2.53,12.43-1.99
	c0.93-1.46,1.39-3.4,1.4-5.84c0-2.07,0.01-4.14,0.03-6.21c0.03-3.13,0.37-6.2,1.02-9.2c5.66-26.22,13.49-51.78,23.48-76.67
	c0.98-2.43,2.6-6.05,4.83-10.84c2.56-5.51,3.98-9.2,4.26-11.08c0.5-3.48-0.55-6.19-3.15-8.13c-3.83-2.88-7.28-3.24-10.34-1.08
	c-1.62,1.14-3.31,3.61-5.08,7.4c-7.76,16.62-14.35,33.67-19.77,51.15c-3.72,11.98-6.4,21.26-8.02,27.84
	c-2.33,9.39-3.99,18.91-4.98,28.57c-0.34,3.36-0.15,7.12,0.59,11.29C579.69,452.32,580.8,453.91,582.64,455z M552.05,471.63
	l24.41-5.81c1.05-0.26,1.15-0.71,0.28-1.37c-6.81-5.24-9.99-12.54-9.54-21.9c1.62-17.88,5.29-35.38,11.04-52.51
	c0.09-0.27,0.14-0.53,0.16-0.78c0.11-1.66-0.21-1.79-0.96-0.38c-13.69,25.66-27.67,51.16-41.95,76.5c-2.39,4.26-5.16,8.14-8.3,11.64
	c-0.94,1.04-0.72,1.38,0.64,1.02L552.05,471.63z M384.04,544.1c1.74,0.23,3.5,0.09,5.27-0.4c46.33-12.89,92.77-25.38,139.31-37.47
	c36.49-9.48,73.14-18.32,109.94-26.52c26.07-5.82,52.45-9.52,79.13-11.1c11.45-0.67,22.77,0.17,33.97,2.53
	c2.07,0.43,4.76,1.41,8.07,2.93c5.98,2.75,8.9,7.21,8.78,13.39c-0.07,3.2-0.1,4.81-0.09,4.82c0.5,3.59,2.7,5.78,6.6,6.57
	c3.65,0.75,6.31-0.06,7.98-2.42c1.63-2.31,2.35-5.61,2.17-9.88c-0.35-8.94-3.35-16.1-8.98-21.48c-4.14-3.95-10.64-7.15-19.52-9.59
	c-10.59-2.92-21.48-4.12-32.68-3.62c-33.81,1.51-67.2,6.1-100.16,13.77c-79.19,18.42-157.84,38.93-235.95,61.54
	c-3.19,0.93-4.92,1.46-5.19,1.6c-1.67,0.86-2.94,2.27-3.78,4.24c-1.5,3.46-1.27,6.37,0.68,8.75
	C380.67,543.07,382.15,543.86,384.04,544.1z"/>
<path class="st3" d="M510.26,446.87c0.41,1.9,1.09,2,2.02,0.3c30.1-54.67,59.87-109.25,89.31-163.75c0.05-0.09,0.64-1.31,1.76-3.65
	c1.06-2.22,2.45-4.18,4.15-5.88c1.76-1.77,3.85-2.7,6.25-2.79c4.63-0.19,7.41,1.78,8.33,5.9c0.5,2.26,0.04,4.92-1.37,8.01
	c-2.29,5-5.27,10.9-8.92,17.69c-20.67,38.46-41.44,76.87-62.29,115.23c-8.26,15.19-16.82,30.2-25.66,45.05
	c-1.99,3.33-4.4,6.24-7.22,8.73c-3.24,2.86-6.49,4.25-9.74,4.18c-4.25-0.09-7.56-2.35-9.96-6.78c-1.19-2.22-2.19-5.47-3-9.75
	c-4.29-22.9-7.73-40.34-10.3-52.3c-0.86-4.03-1.24-7.92-1.14-11.67c0.09-3.35,1.03-5.81,2.84-7.37c2.49-2.16,5.59-2.3,9.29-0.44
	c2.86,1.43,4.62,4,5.3,7.73C503.17,413.04,506.62,430.24,510.26,446.87z"/>
<path class="st3" d="M582.64,455c-1.84-1.08-2.95-2.68-3.31-4.79c-0.74-4.17-0.94-7.93-0.59-11.29c0.98-9.66,2.64-19.19,4.98-28.57
	c1.63-6.58,4.3-15.86,8.02-27.84c5.42-17.48,12.01-34.53,19.77-51.15c1.77-3.79,3.47-6.26,5.08-7.4c3.06-2.16,6.51-1.8,10.34,1.08
	c2.6,1.94,3.65,4.65,3.15,8.13c-0.28,1.88-1.69,5.58-4.26,11.08c-2.24,4.8-3.85,8.41-4.83,10.84
	c-9.99,24.89-17.81,50.45-23.48,76.67c-0.65,3-0.99,6.07-1.02,9.2c-0.02,2.07-0.03,4.14-0.03,6.21c-0.01,2.43-0.48,4.38-1.4,5.84
	C592.21,457.52,588.07,458.19,582.64,455z"/>
<path class="st3" d="M379.59,541.74c-1.95-2.37-2.18-5.29-0.68-8.75c0.85-1.97,2.11-3.38,3.78-4.24c0.27-0.14,1.99-0.67,5.19-1.6
	c78.11-22.61,156.76-43.12,235.95-61.54c32.96-7.67,66.34-12.26,100.16-13.77c11.2-0.5,22.09,0.7,32.68,3.62
	c8.87,2.44,15.38,5.64,19.52,9.59c5.63,5.38,8.63,12.54,8.98,21.48c0.18,4.27-0.55,7.57-2.17,9.88c-1.66,2.36-4.32,3.17-7.98,2.42
	c-3.9-0.8-6.1-2.99-6.6-6.57c-0.01-0.01,0.02-1.62,0.09-4.82c0.13-6.18-2.8-10.64-8.78-13.39c-3.31-1.52-6-2.49-8.07-2.93
	c-11.2-2.35-22.52-3.2-33.97-2.53c-26.68,1.58-53.06,5.27-79.13,11.1c-36.8,8.2-73.45,17.05-109.94,26.52
	c-46.54,12.09-92.98,24.58-139.31,37.47c-1.77,0.49-3.53,0.63-5.27,0.4C382.15,543.86,380.67,543.07,379.59,541.74z"/>
</svg>
